<?xml version="1.0" encoding="UTF-8" standalone="no" ?>
<!DOCTYPE svg PUBLIC "-//W3C//DTD SVG 1.1//EN" "http://www.w3.org/Graphics/SVG/1.1/DTD/svg11.dtd">
<svg xmlns="http://www.w3.org/2000/svg" xmlns:xlink="http://www.w3.org/1999/xlink" version="1.1" width="1920" height="1080" viewBox="0 0 1920 1080" xml:space="preserve">
<desc>Created with Fabric.js 4.6.0</desc>
<defs>
</defs>

<g transform="matrix(1 0 0 1 762.08 598.44)" id="vf67M6R_F2_fXtlfSV3Td"  >
<path style="stroke: rgb(0,0,0); stroke-width: 1; stroke-dasharray: none; stroke-linecap: butt; stroke-dashoffset: 0; stroke-linejoin: miter; stroke-miterlimit: 4; fill: rgb(0,68,96); fill-opacity: 0.87; fill-rule: nonzero; opacity: 1;" vector-effect="non-scaling-stroke"  transform=" translate(0, 0)" d="M -143.37662 -43.63636 L 35.84415999999999 -121.55843999999999 L 60.77921999999999 -81.03895999999999 L 82.5974 -88.83116999999999 L 143.37662 37.40260000000002 L -68.57142999999999 121.55844000000002 z" stroke-linecap="round" />
</g>
<g transform="matrix(1 0 0 1 518.96 881.69)" id="Hw45L6bc_dFYWyAggXm23"  >
<path style="stroke: rgb(0,0,0); stroke-width: 0; stroke-dasharray: none; stroke-linecap: butt; stroke-dashoffset: 0; stroke-linejoin: miter; stroke-miterlimit: 4; fill: rgb(0,68,96); fill-opacity: 0.87; fill-rule: nonzero; opacity: 1;" vector-effect="non-scaling-stroke"  transform=" translate(0, 0)" d="M -10.90909 -197.53247 L 187.01299 -113.37662999999999 L 14.025980000000004 197.53246000000001 L -187.01298 111.03895000000001 z" stroke-linecap="round" />
</g>
<g transform="matrix(1 0 0 1 1002.35 498.8)" id="TImh3Oo0MPB0uBM5WyZ4c"  >
<path style="stroke: rgb(0,0,0); stroke-width: 1; stroke-dasharray: none; stroke-linecap: butt; stroke-dashoffset: 0; stroke-linejoin: miter; stroke-miterlimit: 4; fill: rgb(0,68,96); fill-opacity: 0.87; fill-rule: nonzero; opacity: 1;" vector-effect="non-scaling-stroke"  transform=" translate(-137.68, -121.01)" d="M 0 73.91305 L 173.91304 0 L 189.13043 13.04348 L 197.82608 7.97102 L 275.36231 163.76813 L 78.26086999999998 242.029 L 57.97101999999998 238.40581 L 1.4492799999999804 126.08696 L 23.18840999999998 115.94203 z" stroke-linecap="round" />
</g>
</svg>